<svg version="1.1" id="Layer_1" xmlns="http://www.w3.org/2000/svg" xmlns:xlink="http://www.w3.org/1999/xlink" x="0px" y="0px"
	 width="100%" viewBox="0 0 1024 1024" enable-background="new 0 0 1024 1024" xml:space="preserve">
<path fill="#FFFFFF" opacity="1.000000" stroke="none" 
	d="
M331.679138,575.156921 
	C326.041046,552.362732 323.219330,529.654419 322.640930,506.571930 
	C321.922821,477.915405 322.409668,449.270447 323.105865,420.640869 
	C323.724823,395.186951 325.537170,369.762726 326.748901,344.321899 
	C326.944031,340.225220 328.623932,338.915009 332.781799,339.426697 
	C353.819397,342.015961 374.967926,342.917572 396.117737,341.672394 
	C436.361694,339.303040 474.141357,328.664185 508.342865,306.756592 
	C511.104309,304.987823 513.385498,304.086548 516.488831,306.201904 
	C540.863220,322.816833 568.214111,331.954498 596.885803,337.466644 
	C621.714294,342.239960 646.802612,343.058136 671.991150,341.201904 
	C679.130981,340.675781 686.276733,340.195312 693.399658,339.490448 
	C696.640076,339.169800 698.097046,339.838593 698.528931,343.534393 
	C700.039185,356.457916 700.452942,369.446198 700.818359,382.406525 
	C701.997253,424.210449 703.107727,466.028778 702.018555,507.850708 
	C700.953247,548.757202 692.783691,588.078430 675.013123,625.208008 
	C653.081543,671.031616 621.776794,709.010315 581.110718,739.483704 
	C560.794067,754.708008 539.611328,768.427917 517.154724,780.242554 
	C513.869202,781.971069 511.206909,782.132141 507.868591,780.345154 
	C449.034729,748.851196 397.917786,708.817017 363.491577,650.260254 
	C349.668396,626.747803 338.624908,602.037476 331.679138,575.156921 
M426.185028,492.622253 
	C423.840607,500.853638 422.758820,509.207794 423.260559,517.794067 
	C423.990021,530.277161 430.063873,538.775635 441.802765,542.928040 
	C446.103699,544.449341 449.874756,546.694763 453.551605,549.362976 
	C456.849304,551.755981 457.325958,553.886230 455.601440,557.701599 
	C450.473145,569.047607 448.427612,580.853455 452.162872,593.159485 
	C456.281067,606.726807 466.114838,613.761536 480.217102,612.821350 
	C488.826416,612.247375 495.924194,607.687866 503.083008,603.437744 
	C504.490143,602.602417 505.125549,601.168518 504.823975,599.565491 
	C503.234009,591.113708 502.753021,581.953979 492.088409,579.117798 
	C490.979919,578.822937 489.982300,578.126526 488.915771,577.656006 
	C481.057922,574.188843 481.005890,574.078308 483.591522,565.697144 
	C485.737946,558.739563 485.919281,558.562622 492.376190,562.034058 
	C504.461578,568.531616 516.563477,572.405151 529.210205,563.445496 
	C529.607544,563.164001 530.127502,563.056396 530.588806,562.864075 
	C540.909546,558.561462 541.169006,558.795044 543.581177,570.234741 
	C544.182861,573.088074 543.472961,574.714844 540.979431,575.828430 
	C537.027710,577.593445 533.098267,579.410339 529.120605,581.114807 
	C525.810425,582.533325 523.968567,584.903931 522.989075,588.429260 
	C519.120422,602.352722 519.364075,603.019714 532.741638,608.929871 
	C533.960144,609.468262 535.144958,610.087769 536.380188,610.582825 
	C551.941101,616.818787 567.534424,610.143738 572.506042,594.977844 
	C576.240723,583.585205 575.185913,572.209351 571.051331,561.218506 
	C567.673767,552.240234 567.687195,551.172302 576.210449,546.238708 
	C578.505615,544.910156 580.917358,543.586731 583.448914,542.896667 
	C594.857910,539.786743 600.498840,531.358398 601.406555,520.658997 
	C603.619629,494.570099 596.535217,472.092804 572.955811,457.371857 
	C554.442993,445.814056 535.577637,442.666901 516.324646,455.648224 
	C513.357483,457.648804 510.999054,457.343994 508.153442,455.414948 
	C501.611267,450.980072 494.587341,447.900726 486.469452,447.253143 
	C461.862183,445.290131 432.794617,466.238159 426.185028,492.622253 
M525.653503,389.216522 
	C533.926758,374.678223 546.866211,365.464294 562.831482,358.357849 
	C554.863770,352.499512 546.831543,350.396759 538.947510,350.006012 
	C528.184753,349.472626 519.827332,355.622620 512.676575,364.125031 
	C506.069031,357.331818 499.580658,350.916473 489.953583,350.228241 
	C480.569183,349.557251 472.391449,353.183411 464.188446,357.918091 
	C476.968079,364.466675 488.069824,372.407837 496.399231,383.726135 
	C504.795197,395.134949 509.466309,408.148315 512.487366,422.108063 
	C516.402344,411.030762 518.795410,399.619873 525.653503,389.216522 
M496.355713,656.189392 
	C506.773224,657.498962 517.245789,658.192444 527.641357,656.523071 
	C535.563293,655.251099 543.239929,652.925781 548.900452,646.583801 
	C555.920349,638.718994 554.595825,631.295959 544.958374,627.191956 
	C537.636230,624.073914 529.999023,621.680298 522.451477,619.112793 
	C517.855164,617.549194 513.065369,616.420410 508.248047,617.726318 
	C498.622467,620.335815 489.131073,623.451355 479.961090,627.360535 
	C471.422028,631.000793 469.852417,637.550171 475.488464,645.000854 
	C480.483612,651.604309 487.565094,654.647766 496.355713,656.189392 
M392.431091,425.016724 
	C396.823822,419.913879 402.268555,416.718262 408.955597,415.547546 
	C424.221466,412.875000 437.558105,417.187195 449.608887,426.456085 
	C452.784149,428.898376 455.536987,431.953400 459.510559,433.887909 
	C459.510559,431.922974 459.820740,430.368195 459.465210,428.984436 
	C450.446228,393.878876 419.427094,381.909393 390.717255,395.678253 
	C377.508148,402.013184 370.914520,414.822205 372.338013,429.380188 
	C372.915527,435.286041 375.299500,440.268585 381.083008,442.972137 
	C384.049347,444.358795 385.790924,443.893280 386.172913,440.265625 
	C386.742126,434.860565 388.753967,429.967072 392.431091,425.016724 
M570.680786,416.222137 
	C568.689636,421.552582 565.846191,426.683075 566.283936,432.708435 
	C568.817017,432.960907 569.766113,431.315460 570.845032,430.215057 
	C578.193298,422.720001 587.145874,417.987335 597.227966,415.758179 
	C617.283020,411.324097 635.806946,419.024323 639.285461,440.387482 
	C639.880188,444.040039 641.791016,444.422638 644.550537,442.862274 
	C649.370300,440.136963 652.034302,435.912170 652.744019,430.430450 
	C654.669250,415.560059 647.329285,401.474609 633.656494,395.124268 
	C613.987061,385.988892 584.672180,387.583344 570.680786,416.222137 
M662.591003,527.931152 
	C651.120483,513.713013 627.862427,503.015778 618.582825,508.036713 
	C642.001465,531.871887 656.223022,559.844299 656.485657,594.838562 
	C659.170044,592.537476 660.141052,590.625244 660.976746,588.678772 
	C665.184998,578.876526 668.690063,568.865234 670.216614,558.234497 
	C671.781189,547.338928 669.502014,537.427063 662.591003,527.931152 
M355.308655,559.319641 
	C357.291077,571.263245 360.511108,582.754028 367.845215,593.198547 
	C368.926666,559.014771 383.801636,531.383789 407.203308,507.690491 
	C405.303864,506.165741 403.644806,506.401611 402.002808,506.612427 
	C396.870087,507.271393 391.848846,508.381714 387.024933,510.304993 
	C366.250641,518.587585 350.793427,536.414490 355.308655,559.319641 
M426.340118,569.846375 
	C428.314178,567.389343 431.623199,565.958496 432.373260,562.645203 
	C430.960358,561.096497 429.652802,561.786621 428.386658,562.037903 
	C417.498047,564.198486 408.167145,569.378296 399.908813,576.671387 
	C397.366058,578.916931 394.980103,581.968445 390.947998,578.582886 
	C382.180237,592.585022 378.016449,607.156006 381.545013,623.110107 
	C383.796844,633.291443 388.778259,642.286682 396.171143,650.149048 
	C394.731415,619.084412 405.811951,593.050842 426.340118,569.846375 
M628.721069,642.946960 
	C628.611938,644.988953 627.560364,647.202454 629.788452,648.945801 
	C630.254211,648.660583 630.770142,648.500671 631.049133,648.151428 
	C647.026306,628.144958 649.213745,606.059692 636.933960,583.420532 
	C635.707825,581.159973 634.334290,579.182434 631.072937,580.286133 
	C629.055176,580.969055 627.785461,579.164124 626.365051,578.028687 
	C618.267883,571.556396 609.967346,565.393555 599.702942,562.735413 
	C596.987549,562.032043 594.200378,560.880615 590.498474,561.911194 
	C614.330750,583.952332 628.493713,609.792786 628.721069,642.946960 
M418.230988,450.125275 
	C412.263641,448.886353 406.324951,449.475525 400.361176,450.266083 
	C385.357361,452.254974 372.144562,457.789917 362.041107,469.477203 
	C350.826813,482.449432 348.440552,497.955963 349.396942,514.370789 
	C349.494202,516.040405 349.861694,517.695557 352.457031,518.408630 
	C357.528351,513.355225 362.908875,508.206329 369.311066,504.274384 
	C375.665070,500.372040 382.392029,497.281036 389.241455,494.195465 
	C379.584869,493.858429 370.737183,497.257324 361.592529,499.974182 
	C375.316833,474.815277 396.777252,460.026642 424.080627,452.924438 
	C422.724396,450.338287 420.793152,450.456635 418.230988,450.125275 
M655.515869,503.887299 
	C660.922058,507.512146 665.980835,511.557770 670.664978,516.089539 
	C673.164734,518.507935 675.364380,518.337769 675.645020,514.477295 
	C676.893616,497.300934 674.394653,481.075867 661.661438,468.224182 
	C646.674683,453.097992 627.881470,448.408447 607.245483,449.701660 
	C604.554749,449.870270 601.405212,449.980499 598.430298,453.061951 
	C612.897034,455.975494 625.699463,460.754913 636.848022,469.323853 
	C647.843384,477.774994 658.289551,486.653473 663.565002,500.207825 
	C655.278076,496.590210 647.044067,494.029785 638.117065,494.545471 
	C643.730652,497.647369 649.588440,500.042328 655.515869,503.887299 
M432.613739,694.557617 
	C433.491516,694.934692 434.173798,695.896851 435.981934,695.228882 
	C432.884644,681.262451 430.593750,667.087524 431.543335,652.545959 
	C432.488342,638.075073 435.068420,623.999817 440.542908,609.958191 
	C439.408936,610.393982 438.922302,610.494507 438.534607,610.747009 
	C437.560516,611.381409 436.571991,612.015564 435.692871,612.770569 
	C424.450439,622.425903 416.375275,634.166748 411.997314,648.416809 
	C408.358032,660.262451 410.951324,670.668213 418.609375,680.157898 
	C422.704956,685.233032 427.310059,689.776062 432.613739,694.557617 
M591.354492,632.384460 
	C596.117371,653.627380 594.684692,674.744629 589.750977,695.995483 
	C596.089600,691.916382 600.925293,686.766724 605.575073,681.401245 
	C613.348145,672.431763 617.026672,662.395630 613.817871,650.511047 
	C609.649109,635.070801 601.295471,622.376221 588.779907,612.425537 
	C588.247192,612.002014 587.582153,611.891846 586.458435,612.786621 
	C588.000977,618.855042 589.614563,625.203064 591.354492,632.384460 
M478.337860,705.189941 
	C478.704254,707.655457 479.012543,710.131287 479.446564,712.584900 
	C482.220306,728.265808 490.904449,739.590393 504.891357,746.981201 
	C505.927185,747.528564 506.994232,748.085205 508.094543,747.039673 
	C508.900085,745.488647 508.034790,744.029724 507.536743,742.744446 
	C503.299408,731.808838 501.653809,720.229736 498.908691,708.923340 
	C496.304749,698.198486 492.713226,687.833618 486.170868,678.765076 
	C484.193817,676.024597 482.379517,672.983276 478.113525,671.683960 
	C476.817108,682.855896 477.082306,693.571411 478.337860,705.189941 
M546.740662,704.367249 
	C547.742920,693.782349 548.373779,683.207397 547.014282,672.677490 
	C543.751526,672.701843 542.814697,674.351562 541.635986,675.727356 
	C535.467834,682.927002 531.494690,691.311584 528.722656,700.257690 
	C524.252258,714.685120 522.733765,729.880249 517.470215,744.116394 
	C517.081848,745.166870 516.896851,746.418274 518.097656,747.268738 
	C533.242065,743.685852 545.193848,726.142273 546.740662,704.367249 
M428.735352,376.018219 
	C454.492645,382.823547 471.300262,399.398621 480.481598,424.555878 
	C486.320801,414.748840 484.995605,395.933228 475.369904,384.781616 
	C462.659607,370.056458 443.731110,369.301727 427.619720,372.444275 
	C426.707947,372.622101 425.662231,372.976013 425.339355,374.152679 
	C425.646088,375.663544 427.007477,375.495483 428.735352,376.018219 
M557.486267,377.971466 
	C541.870667,388.898621 537.942078,410.557404 545.296387,425.029785 
	C554.869263,397.859894 572.703308,380.439484 601.569397,374.847778 
	C591.101379,368.546875 570.284485,370.190826 557.486267,377.971466 
M458.535339,653.067261 
	C457.802521,650.759033 458.559906,648.123413 456.555481,644.723450 
	C447.196289,659.762268 444.516602,675.047913 447.783417,691.374084 
	C450.318665,704.044373 456.305908,714.568542 468.181580,720.999207 
	C465.437805,709.896851 463.371460,698.854126 461.926361,687.686279 
	C460.475861,676.476440 459.027924,665.269470 458.535339,653.067261 
M558.898132,720.701355 
	C563.460876,718.043640 566.937012,714.268616 569.824158,709.926697 
	C581.891663,691.778809 580.412048,665.975403 570.638855,647.976746 
	C570.237000,647.236694 569.645020,646.630981 568.621460,646.831970 
	C567.011719,647.781189 567.414734,649.414185 567.351624,650.846985 
	C566.374023,673.030273 563.207092,694.891663 557.833923,716.438660 
	C557.475464,717.876343 556.155334,719.578308 558.898132,720.701355 
z"/>
<path fill="#000000" opacity="1.000000" stroke="none" 
	d="
M529.736145,822.568481 
	C540.137085,828.231323 550.153076,833.877136 558.453064,842.040222 
	C559.401489,842.973022 560.405579,843.905457 561.117676,845.009705 
	C562.321594,846.876587 565.589417,848.588135 562.344360,851.181946 
	C559.651611,853.334351 557.007812,855.757751 553.306885,852.093018 
	C542.377014,841.270020 529.219055,833.812500 515.260620,827.631042 
	C513.186035,826.712341 511.428406,826.292175 509.144318,827.394226 
	C495.584869,833.937195 482.552643,841.213867 471.684204,851.886719 
	C468.412750,855.099304 464.665710,854.478455 461.997925,850.789978 
	C460.295502,848.436157 462.064087,847.162231 463.388397,845.695740 
	C470.759735,837.533203 479.873138,831.739990 489.413879,826.520630 
	C492.277466,824.954102 495.108124,823.327271 498.730957,821.291321 
	C490.636261,816.839478 482.598358,815.395569 474.782745,813.472717 
	C463.961670,810.810486 452.988037,808.758179 442.320038,805.482666 
	C439.183380,804.519592 437.006073,804.980591 434.363525,807.406799 
	C415.484344,824.740417 393.535980,830.282104 368.703278,823.443787 
	C365.922729,822.678101 362.046844,822.264099 361.381317,819.109985 
	C360.758545,816.158630 364.175079,814.415405 366.256531,812.656555 
	C375.750519,804.634155 387.116852,801.212830 399.211914,799.657104 
	C404.812134,798.936707 410.421173,798.535583 416.253296,798.388855 
	C407.197998,794.640503 398.776215,789.801331 389.892792,785.911804 
	C387.759399,784.977783 386.414703,786.311462 384.915192,787.288086 
	C365.036163,800.235168 344.296814,800.399170 322.944214,791.474426 
	C322.177094,791.153809 321.416992,790.801025 320.695068,790.390320 
	C316.054077,787.750061 315.823669,785.845032 320.147644,782.793030 
	C328.795776,776.688965 338.545837,773.438782 349.060150,772.817444 
	C355.298767,772.448792 361.606018,772.122009 368.031219,773.320496 
	C361.151093,768.698730 354.251953,764.104919 347.402985,759.437439 
	C345.467896,758.118774 343.943390,758.422302 341.955627,759.597229 
	C324.084808,770.159912 296.744293,768.484375 280.465546,755.967773 
	C275.609497,752.234009 275.828247,750.385071 281.426270,747.589783 
	C295.039001,740.792480 309.243225,740.393555 323.787354,743.654785 
	C324.916443,743.907959 326.031982,744.221497 327.160400,744.478088 
	C327.280243,744.505310 327.444580,744.336731 328.194702,743.930908 
	C322.187347,738.297485 316.330780,732.792358 310.455719,727.307068 
	C309.264709,726.195068 308.049438,726.868530 306.738251,727.236938 
	C282.168152,734.140381 260.658691,729.174561 242.772720,710.522888 
	C241.003967,708.678467 238.085724,706.877319 239.373459,703.883301 
	C240.656128,700.901184 244.147507,701.134705 246.847855,700.816833 
	C262.632141,698.958862 277.753723,700.735962 291.471619,709.555969 
	C291.888428,709.824036 292.348541,710.047852 292.818024,710.202454 
	C293.105469,710.297058 293.449463,710.219910 294.001068,710.219910 
	C294.238647,708.350891 292.858124,707.211304 291.958008,705.977295 
	C287.836121,700.326172 283.470947,694.846924 279.495850,689.096680 
	C277.465912,686.160217 275.281006,684.890320 271.620819,685.385498 
	C245.588638,688.907898 222.979004,672.030884 211.942093,651.564026 
	C211.076309,649.958496 209.997513,648.176208 211.176575,646.413086 
	C212.381714,644.611084 214.411407,645.190918 216.229279,645.321594 
	C235.143280,646.681580 251.317169,653.885742 264.360687,667.809814 
	C265.032227,668.526672 265.817352,669.137024 267.243469,670.422302 
	C266.340302,665.715332 263.899719,662.670105 262.222382,659.286011 
	C259.189606,653.167175 256.254852,646.999695 253.291046,640.846802 
	C252.410324,639.018433 251.583832,637.403625 249.083450,637.183716 
	C224.945694,635.059875 210.127014,620.336792 199.417816,600.169617 
	C198.327957,598.117310 197.539154,595.903992 196.631973,593.756287 
	C195.980057,592.212952 195.132233,590.505859 196.342880,589.034485 
	C197.615463,587.487793 199.491425,588.344299 201.055801,588.672058 
	C217.737991,592.167358 231.150894,600.819092 241.464951,614.366150 
	C242.316681,615.484863 242.659210,617.150818 245.031464,617.756226 
	C242.026794,606.833008 239.155487,596.297363 236.208176,585.783020 
	C235.757690,584.175964 234.400558,583.513428 232.756546,583.364990 
	C215.258438,581.785217 204.278336,570.862793 195.471848,557.046143 
	C191.603180,550.976562 188.934875,544.313843 187.446457,537.220215 
	C187.038986,535.278320 185.987518,533.114929 187.683273,531.557556 
	C189.439285,529.944824 191.563889,531.426575 193.328613,532.039551 
	C210.984772,538.172363 223.202972,550.288879 231.271896,566.893921 
	C231.483841,567.330078 231.752335,567.738770 232.341187,568.763977 
	C233.280060,564.923401 231.741119,561.850220 231.571442,558.717712 
	C231.392120,555.406860 230.768555,552.119690 230.326752,548.823853 
	C230.282883,548.496704 230.076126,548.181213 230.075241,547.859863 
	C230.045380,537.060059 226.221680,530.721619 215.138458,525.433289 
	C198.727921,517.602905 190.592667,501.678711 188.666946,483.256409 
	C188.424622,480.938232 188.111511,478.614044 188.083481,476.289612 
	C188.026001,471.522766 189.650421,470.492004 193.842773,472.823029 
	C207.857956,480.615662 218.188614,491.766968 224.317993,506.689880 
	C225.112579,508.624420 225.449936,510.799500 227.488922,512.953064 
	C227.908417,500.633972 228.313629,488.905365 228.700943,477.176178 
	C228.758484,475.433380 227.637802,474.488953 226.244202,473.732941 
	C205.931519,462.713593 198.464722,444.271759 196.762970,422.546234 
	C196.542374,419.729919 196.680298,416.881866 196.721283,414.049500 
	C196.779526,410.026154 199.019104,409.312531 201.897934,411.327240 
	C216.722382,421.702026 228.101227,434.483856 230.324707,453.408508 
	C230.436401,454.359192 230.143234,455.427124 231.464432,456.520020 
	C233.686172,450.296570 233.784271,443.796387 235.602295,437.735077 
	C238.601501,427.735687 240.097107,418.334351 227.904175,413.147644 
	C211.293640,396.391541 209.549484,373.418091 217.116806,352.766235 
	C218.676544,348.509583 221.052689,349.643066 223.437851,352.091034 
	C233.003845,361.908966 239.340637,373.401031 241.286469,387.081482 
	C241.976105,391.929993 242.306213,396.829620 242.816666,401.865906 
	C244.922058,401.052032 245.202866,399.484680 245.615738,398.109009 
	C248.110703,389.796143 251.533295,381.830780 254.970703,373.895752 
	C256.264130,370.909943 255.830780,368.974365 253.735001,366.835114 
	C237.198410,349.955322 238.352234,322.766632 249.330734,304.072388 
	C249.752182,303.354736 250.197678,302.645874 250.691498,301.976868 
	C253.700256,297.900696 255.397537,297.864563 257.998383,302.282593 
	C266.063568,315.982849 267.731201,330.746033 264.898621,346.187073 
	C264.688538,347.332123 264.407654,348.464233 264.198944,349.609528 
	C264.081909,350.251678 264.045532,350.908508 263.910370,352.116943 
	C265.986206,351.069946 266.480530,349.273285 267.233612,347.867798 
	C271.250214,340.371552 275.479431,333.002960 280.273224,325.978790 
	C282.185547,323.176758 282.335907,320.990723 280.203369,317.944061 
	C267.303986,299.515503 270.754150,270.192017 287.386139,254.699844 
	C290.712067,251.601852 292.210693,252.071365 293.830292,256.838776 
	C298.228638,269.785828 298.453491,282.971588 295.924103,296.284790 
	C295.585083,298.069427 294.845337,299.787140 295.547028,301.679199 
	C297.534271,302.203094 298.134338,300.471283 298.997650,299.456116 
	C303.314117,294.380310 307.406647,289.109344 311.831482,284.132416 
	C314.032501,281.656769 314.202423,279.642761 312.827118,276.575043 
	C304.909607,258.914429 310.809845,235.683578 326.023560,223.651520 
	C327.173126,222.742371 328.227692,221.564316 330.769836,221.734314 
	C335.500977,234.506409 334.104919,247.637100 331.752991,261.099335 
	C336.408600,256.214630 342.505859,253.452652 344.528351,245.789001 
	C348.112854,232.206451 357.552460,222.858612 370.145050,216.691315 
	C376.477295,213.590057 383.111847,211.489670 390.006866,210.139359 
	C394.765167,209.207474 395.942139,210.446060 394.472351,215.072159 
	C388.929016,232.519730 377.659332,244.832779 360.586304,251.333984 
	C354.989532,253.465164 350.095184,256.028656 346.216339,260.572876 
	C343.480927,263.777527 339.791565,266.166504 337.699463,270.015015 
	C339.535034,271.239899 340.855408,270.321899 342.216095,269.772552 
	C354.466919,264.826477 367.033630,263.874908 379.903076,266.809570 
	C380.714020,266.994476 381.517853,267.224579 382.307526,267.486389 
	C387.985748,269.368805 388.374664,270.906616 384.306641,275.328339 
	C371.063080,289.723358 348.635681,294.606537 328.478180,286.986511 
	C324.380615,285.437500 321.978333,286.127045 319.533508,289.279755 
	C314.575653,295.673187 308.679871,301.351288 303.987244,309.328369 
	C308.064850,308.033356 311.169312,307.055603 314.268585,306.061615 
	C326.360870,302.183411 338.635590,303.289276 350.875183,304.936096 
	C354.645569,305.443420 355.058105,307.975677 352.079926,311.591248 
	C344.547638,320.735687 334.601440,325.742554 323.179688,328.140259 
	C314.015808,330.063995 304.927826,329.774597 296.083557,326.685089 
	C292.992096,325.605164 291.105988,326.120056 289.461090,328.895538 
	C284.673523,336.973755 279.199921,344.674438 275.048706,354.873383 
	C282.931335,349.277466 289.751526,344.839752 297.975952,343.426208 
	C305.093292,342.202911 312.195068,342.394897 319.340424,343.398560 
	C323.609680,343.998199 323.950470,345.996826 321.974335,349.143494 
	C315.909271,358.801117 307.528259,365.622589 296.693115,369.257568 
	C287.941895,372.193390 278.947998,373.836609 269.678558,373.267639 
	C267.089996,373.108734 265.087738,373.501587 263.916626,376.050812 
	C259.560303,385.533264 255.700562,395.183075 253.746155,405.653595 
	C263.300415,393.737640 275.937225,387.788300 290.595459,385.518982 
	C296.331207,384.631042 297.759979,386.148926 295.923615,392.131439 
	C291.971680,405.006073 283.223297,413.820740 271.421967,419.726807 
	C265.248840,422.816162 258.603149,424.433197 251.641800,424.295959 
	C249.173859,424.247314 247.315826,424.909302 246.773727,427.508270 
	C244.536713,438.233643 242.303787,448.962067 240.982132,461.453857 
	C245.456589,455.521759 248.583252,450.419464 252.953995,446.265411 
	C260.692474,438.910614 269.681458,434.323151 280.149323,432.499512 
	C285.062683,431.643524 286.120239,432.569153 284.801025,437.174622 
	C278.685242,458.525574 265.430481,472.574524 243.138641,476.822357 
	C239.354599,477.543427 238.292099,479.059998 237.945251,482.583405 
	C236.739532,494.832214 237.408768,507.048920 237.893875,519.366699 
	C239.912155,515.100586 241.322372,510.739838 243.439133,506.654053 
	C250.721100,492.598602 262.586639,484.395721 277.313232,479.749664 
	C280.723633,478.673737 282.022614,479.719147 281.304810,483.346527 
	C276.700775,506.612488 265.030426,523.944580 241.260437,531.093628 
	C239.146271,531.729492 238.194305,532.814636 238.245773,534.976562 
	C238.539780,547.328125 241.198486,559.316040 243.886917,571.669556 
	C247.714798,550.072205 260.135742,536.368591 280.961639,528.911865 
	C281.983093,535.619995 281.044250,541.368042 279.606140,546.915344 
	C275.419983,563.062805 266.592804,575.665527 250.730194,582.298706 
	C247.078903,583.825562 246.254105,585.762451 247.192627,589.564270 
	C250.102310,601.351379 253.553207,612.951477 258.181274,624.381165 
	C258.760223,619.060669 258.576508,613.734436 259.644714,608.488525 
	C262.103271,596.414734 267.874115,586.447876 277.371155,578.602722 
	C280.148682,576.308350 282.109070,576.373718 283.050232,580.228210 
	C287.406372,598.068848 285.979645,614.963257 274.704224,630.170349 
	C272.928894,632.564758 271.115692,635.161377 268.733124,636.822998 
	C264.819366,639.552612 265.052917,642.414001 266.745605,646.238403 
	C280.710846,677.791504 300.938019,704.779724 325.926025,728.407471 
	C350.127075,751.291016 377.638245,769.231018 407.589996,783.529968 
	C413.548126,786.374329 419.917023,788.358276 426.524017,790.051147 
	C424.354279,788.478333 422.187317,786.901672 420.014374,785.333313 
	C404.893860,774.419495 398.682556,759.037903 397.875000,740.995544 
	C397.734039,737.846375 398.602997,735.398926 402.548889,737.373840 
	C418.166809,745.190613 430.984589,755.827576 437.963562,772.413574 
	C440.453186,778.330444 441.290924,784.614685 442.043091,790.853149 
	C442.492340,794.579041 444.208679,795.897217 447.514832,796.718079 
	C463.342133,800.647827 479.374512,803.763855 494.977295,808.589233 
	C495.294067,808.687195 495.671936,808.649963 495.949005,808.804993 
	C507.612427,815.329407 518.976746,813.745667 531.004822,808.994995 
	C545.400452,803.309265 560.867493,800.970215 575.829285,797.026672 
	C580.186096,795.878296 582.543884,794.344482 583.023499,789.234070 
	C585.363586,764.301208 600.386047,748.663940 621.777588,737.988953 
	C623.473389,737.142639 623.505005,737.206055 627.270203,737.306702 
	C627.630737,760.108887 618.404236,777.586975 599.082825,790.020813 
	C610.553650,786.624207 621.417969,782.403870 631.770203,776.837097 
	C672.760986,754.794922 707.647583,725.719482 734.595703,687.552734 
	C743.933044,674.328247 751.634338,660.119202 758.646729,645.533997 
	C760.167542,642.370789 759.763855,640.094788 756.986938,637.686462 
	C742.187744,624.851807 737.853455,608.245117 740.126648,589.407166 
	C740.464844,586.604614 741.014404,583.817871 741.630920,581.060669 
	C742.707642,576.244568 744.134888,575.812927 747.847961,579.105042 
	C759.899292,589.790100 765.501282,603.406555 766.122925,619.300415 
	C766.185303,620.897888 765.526184,622.568970 766.870789,624.831909 
	C768.006348,621.778442 769.124329,619.268555 769.878662,616.653687 
	C772.460022,607.704773 774.911682,598.718506 777.417297,589.747681 
	C778.349731,586.409180 777.588013,584.119385 774.096558,582.579285 
	C753.441284,573.467773 745.350403,555.985474 742.866943,534.942261 
	C742.214844,529.416321 743.735901,528.347595 748.605835,530.757141 
	C763.760620,538.255493 775.047546,549.154053 779.228638,566.173218 
	C779.423462,566.965942 779.715576,567.744263 780.056946,568.485840 
	C780.164917,568.720459 780.580872,568.813232 781.289368,569.219482 
	C783.854004,564.594360 783.640442,559.356506 784.470032,554.485901 
	C785.471436,548.606201 785.495422,542.563232 786.016785,536.597412 
	C786.285767,533.518921 785.289062,531.596924 782.080872,530.705566 
	C762.306213,525.211426 751.606812,510.901367 745.282593,492.446472 
	C744.257935,489.456451 743.490662,486.378845 742.578674,483.349487 
	C741.251160,478.939941 743.639526,478.879669 746.803955,479.717438 
	C761.355347,483.569855 772.493530,491.946686 780.252075,504.856079 
	C782.742676,509.000214 784.693604,513.376099 786.498596,519.240540 
	C788.404297,510.869843 787.598450,503.643951 787.524048,496.482849 
	C787.475586,491.825256 786.850037,487.176117 786.706604,482.516296 
	C786.597473,478.970154 785.177368,477.071228 781.515137,476.485107 
	C758.735718,472.839294 746.051147,458.356262 739.817749,437.157288 
	C738.353455,432.177185 739.073730,431.562256 744.193665,432.424683 
	C760.292419,435.136505 772.355652,443.756866 780.957825,457.467255 
	C781.400269,458.172394 781.841919,458.879395 782.321411,459.559082 
	C782.505127,459.819366 782.793884,460.005463 784.015381,461.120667 
	C782.979309,453.719666 782.082886,447.311615 781.181580,440.904297 
	C781.158752,440.741730 781.046509,440.588928 781.036377,440.427765 
	C780.350037,429.569122 776.644592,424.019623 763.764404,422.786713 
	C745.959412,421.082336 734.703491,408.472656 729.084534,391.464264 
	C727.279907,386.001465 728.354248,384.972137 733.955017,385.483246 
	C747.950012,386.760376 759.188232,393.344879 768.750183,403.252747 
	C769.872620,404.415802 770.968811,405.604248 772.426392,406.579926 
	C769.506592,395.453461 765.572815,384.774628 760.207642,374.650360 
	C758.918579,372.217865 756.598694,372.966766 754.423706,373.045898 
	C734.911316,373.755493 717.796265,368.690430 705.555847,352.294006 
	C704.021484,350.238617 701.302185,348.069214 702.562988,345.377747 
	C703.774475,342.791656 707.149719,343.047516 709.751160,342.795105 
	C723.164551,341.493530 735.613098,343.978180 746.489624,352.431793 
	C747.625183,353.314392 748.881287,354.041870 750.596130,355.184174 
	C750.406250,352.156219 749.129883,350.207764 747.920532,348.320892 
	C743.785156,341.869080 739.470398,335.531708 735.369568,329.058502 
	C733.603455,326.270630 731.830322,325.670563 728.395203,326.562439 
	C708.222412,331.800262 689.723145,329.415344 674.629456,313.465149 
	C673.944458,312.741272 673.242371,312.013611 672.679871,311.197021 
	C670.147156,307.520416 670.717773,305.606110 675.020203,304.951813 
	C690.188477,302.645264 705.228271,301.979462 719.280334,309.899506 
	C719.994446,310.302002 720.772461,310.591095 722.248352,310.421875 
	C721.301208,309.077698 720.378845,307.715179 719.400269,306.394257 
	C718.310852,304.923523 717.250854,303.418945 716.037231,302.054352 
	C711.941711,297.449615 707.718140,292.957520 703.676392,288.306915 
	C701.530151,285.837219 699.565063,285.590485 696.309509,286.680511 
	C676.752686,293.228546 658.230042,292.229584 642.071899,277.777832 
	C639.913879,275.847687 636.618530,273.848663 637.517456,270.586792 
	C638.402344,267.376068 642.178711,267.276031 645.051086,266.575043 
	C658.318176,263.337158 671.114868,265.029327 683.554626,270.333038 
	C685.193726,271.031891 686.840881,271.711792 688.559509,272.432007 
	C689.185120,270.444214 687.721619,269.810486 686.894775,268.939758 
	C682.536865,264.350250 678.041077,259.888977 673.765564,255.225250 
	C672.285889,253.611267 670.519470,253.008896 668.577515,252.521194 
	C649.032776,247.612762 637.232300,234.519073 630.539124,216.213791 
	C628.532349,210.725555 629.648071,209.630783 635.408386,210.616257 
	C649.087585,212.956451 661.127625,218.466766 670.674133,228.847839 
	C673.987183,232.450455 677.385010,236.310837 678.343994,240.985535 
	C680.426392,251.136246 688.100525,256.834015 694.952515,263.510071 
	C693.879883,257.806549 691.964539,252.323349 691.415894,246.512024 
	C690.733032,239.278625 691.514954,232.246017 692.685059,225.167709 
	C693.365234,221.052933 695.090393,221.025391 698.028687,223.271210 
	C713.573853,235.152832 719.739258,257.731384 711.952820,275.947815 
	C710.385559,279.614410 710.693848,281.942505 713.290405,284.798065 
	C719.416443,291.535278 724.578674,299.122498 731.185791,305.688110 
	C732.255615,303.637573 731.033386,302.204834 730.589600,300.708282 
	C726.357788,286.437592 726.164795,272.168365 730.663086,257.938934 
	C732.793884,251.198532 734.343079,250.959290 739.007080,256.165863 
	C755.187500,274.228516 756.809326,303.103729 744.623047,318.632874 
	C743.435669,320.145935 742.901672,321.825012 743.913513,323.739014 
	C749.020752,333.399994 754.513611,342.826050 760.788147,351.876373 
	C758.923950,340.570160 757.905945,329.394043 760.643127,318.155853 
	C762.033508,312.447174 763.896667,306.940552 767.029602,301.977234 
	C769.416077,298.196472 771.451904,298.091461 773.828735,301.646271 
	C787.005554,321.353455 787.823181,349.160370 771.790161,366.622925 
	C770.251099,368.299194 769.085876,369.774231 770.080566,372.328644 
	C774.465027,383.588409 778.692383,394.909424 783.451843,407.461212 
	C781.160767,386.739471 786.025818,369.523956 799.031555,354.814240 
	C799.912903,353.817444 800.795288,352.815186 801.751099,351.891998 
	C804.439026,349.295563 806.564392,349.334503 808.071533,353.155457 
	C817.798340,377.815155 810.085693,404.331604 791.547546,417.397003 
	C787.537659,420.223083 786.282227,422.990509 787.300415,427.622406 
	C789.608582,438.123016 791.586792,448.696167 794.035706,459.367981 
	C795.540649,436.931427 806.485596,420.989532 826.496216,410.023621 
	C829.724792,419.754761 827.820801,428.288696 825.785950,436.611450 
	C821.826904,452.804321 813.708679,466.145172 798.048462,473.709717 
	C796.226196,474.589966 795.269165,475.851898 795.403198,478.029877 
	C796.137024,489.956635 796.783508,501.888733 797.543579,515.293030 
	C800.458374,505.713318 803.854065,497.895477 809.147217,490.973053 
	C815.139099,483.136719 822.721863,477.279755 831.243103,472.560608 
	C834.836060,470.570801 836.021057,471.541840 836.312439,475.996185 
	C837.711731,497.381500 822.185913,524.563293 799.603027,529.605774 
	C797.923889,529.980652 796.515381,530.682007 796.276794,532.774902 
	C794.999512,543.979126 793.652893,555.175476 792.314758,566.505981 
	C794.388306,566.368958 794.503113,564.767700 795.032471,563.714294 
	C802.945618,547.969299 815.744995,537.951660 832.052917,532.052795 
	C833.693298,531.459412 835.498840,530.156372 837.205688,531.666138 
	C838.731506,533.015808 837.831604,534.805969 837.442932,536.369080 
	C832.248535,557.258362 821.339722,573.493652 800.458252,581.535034 
	C798.753601,582.191467 796.876953,583.273315 795.228943,583.051697 
	C788.665710,582.168945 787.411499,586.450378 786.508057,591.309814 
	C784.807312,600.458069 781.790588,609.271484 780.016235,618.634399 
	C781.718689,616.398315 783.416687,614.158752 785.124573,611.926758 
	C794.944580,599.093384 808.497009,592.495789 823.800537,588.888916 
	C825.346191,588.524597 827.256531,587.925781 828.506226,589.443176 
	C829.601501,590.773010 828.770264,592.331848 828.198547,593.704712 
	C821.175903,610.566650 810.364075,624.079346 793.759460,632.402222 
	C788.053345,635.262329 782.052795,637.266296 775.603638,637.319824 
	C773.226135,637.339600 771.899292,638.254761 771.070984,640.373230 
	C767.618835,649.202942 763.715210,657.834900 758.968689,666.776367 
	C761.265991,666.692078 762.069397,665.243042 763.020508,664.391052 
	C776.342285,652.458008 792.112122,646.620850 809.773987,645.489075 
	C814.244751,645.202698 815.283691,646.822388 813.071106,650.851379 
	C801.041260,672.756470 782.422119,684.392822 757.568481,686.190491 
	C756.740662,686.250366 755.787415,686.430237 755.087769,686.117615 
	C748.512024,683.178772 745.730042,687.278503 742.695496,692.109009 
	C738.849304,698.231445 734.317200,703.923035 730.360229,710.188904 
	C737.199829,706.110229 744.468872,703.450073 752.094788,701.804993 
	C761.808472,699.709717 771.570068,699.436157 781.306091,701.679688 
	C785.754089,702.704651 786.512817,704.806458 783.534668,708.269897 
	C769.479187,724.616089 751.532166,731.503845 730.192566,729.809753 
	C725.902344,729.469116 721.522644,729.270142 717.604370,727.077515 
	C716.092896,726.231750 714.631409,726.495056 713.476257,727.660522 
	C708.112244,733.072510 702.803345,738.539124 696.900879,744.572693 
	C709.190491,741.302917 720.958130,740.748352 732.798218,743.527283 
	C736.894226,744.488647 740.772949,745.888062 744.396240,747.995789 
	C749.088623,750.725525 749.181763,751.778381 744.960449,755.001343 
	C731.886597,764.983276 716.943970,767.539612 701.001099,765.882446 
	C694.464417,765.203064 688.223999,763.440186 682.835693,759.496216 
	C680.675415,757.914917 678.825073,758.381348 676.882690,759.673645 
	C670.387695,763.994873 663.895508,768.320374 657.118591,772.833130 
	C658.819153,774.095947 660.253174,773.187744 661.575500,773.065979 
	C676.528870,771.689392 690.870483,773.172058 703.670105,781.934937 
	C705.267212,783.028320 707.423218,783.835632 707.433472,786.236877 
	C707.445251,788.978516 705.070129,789.714539 703.149597,790.537842 
	C681.023743,800.021973 659.323242,801.140686 638.475647,787.009827 
	C637.378296,786.265991 636.353088,785.167114 634.892944,785.939636 
	C626.402039,790.431641 617.421204,793.872131 608.706177,798.157532 
	C616.687012,798.743408 624.571167,799.102722 632.348694,800.594238 
	C643.040039,802.644592 652.672668,806.823425 660.793457,814.224976 
	C665.436829,818.457031 665.238586,820.301514 659.102600,822.271667 
	C633.956299,830.345581 611.056641,826.299805 591.143677,808.603455 
	C587.571472,805.428955 584.644958,804.751892 580.052002,806.016113 
	C565.302246,810.076111 550.381836,813.514038 535.541992,817.250610 
	C532.816406,817.936951 530.159973,818.897827 527.510681,819.719849 
	C527.173401,821.492798 528.710388,821.650146 529.736145,822.568481 
z"/>
<path fill="#000000" opacity="1.000000" stroke="none" 
	d="
M426.312195,216.653992 
	C423.688354,211.595551 421.227264,206.870438 418.810394,202.122833 
	C417.742981,200.026108 417.587402,198.381683 420.612549,197.783615 
	C433.510712,195.233688 456.395599,204.425598 463.856018,215.230240 
	C464.706818,216.462372 465.766571,217.596588 464.988983,219.595413 
	C459.194885,221.315018 452.672424,218.712845 446.813995,221.308273 
	C448.665039,229.512482 450.022827,230.686890 457.362274,230.692993 
	C471.019928,230.704346 484.677917,230.749237 498.334930,230.657455 
	C500.535095,230.642670 503.833313,231.792679 503.625153,227.493729 
	C503.353607,221.884552 500.651398,218.640182 496.635132,219.379761 
	C492.326935,220.173126 488.500092,222.238007 484.763184,224.459457 
	C483.511932,225.203293 482.602631,226.590408 480.456085,226.585266 
	C477.464081,218.398514 478.233582,210.500748 482.644226,202.955322 
	C485.602692,197.894119 489.515717,193.567963 493.712982,189.486526 
	C500.506470,182.880539 507.156036,176.141800 511.774994,167.703247 
	C512.593018,167.983871 513.252258,167.999115 513.443970,168.306229 
	C520.919434,180.282837 531.944458,189.205002 540.735962,200.051132 
	C546.694336,207.401917 547.427856,215.740601 546.116333,224.597641 
	C546.046570,225.068985 545.776794,225.530319 545.520508,225.947372 
	C545.355713,226.215530 545.045044,226.394028 544.378845,226.987915 
	C539.645020,224.884033 535.476135,220.936447 529.954102,220.060577 
	C528.068237,219.761459 525.856812,218.244781 524.404358,220.315842 
	C522.683350,222.769836 521.891052,225.813507 521.948669,228.789856 
	C521.983887,230.610748 524.045044,230.673050 525.531982,230.675339 
	C541.021301,230.699173 556.513672,230.853622 571.998352,230.583969 
	C577.353394,230.490723 577.240417,225.562973 578.499634,221.567337 
	C572.505066,218.669098 566.090881,221.443527 559.599731,219.401443 
	C562.024597,212.855865 566.830627,208.833023 572.152161,205.592636 
	C581.820984,199.705063 592.747253,198.197693 603.810181,197.891022 
	C608.622437,197.757599 607.076843,200.993134 605.832336,203.381470 
	C600.525513,213.565308 595.196594,223.739838 589.701050,233.822556 
	C584.366394,243.610138 578.669128,253.202423 573.452637,263.050812 
	C571.837524,266.099976 569.561768,266.238129 566.847351,266.236877 
	C550.025269,266.229126 533.203186,266.213989 516.381104,266.227936 
	C497.227417,266.243805 478.073364,266.236877 458.920349,266.367310 
	C455.594818,266.389954 453.482391,265.503143 451.766602,262.347961 
	C443.496826,247.140533 434.944824,232.086578 426.312195,216.653992 
z"/>
<path fill="#000000" opacity="1.000000" stroke="none" 
	d="
M566.553833,272.686249 
	C571.576843,273.875183 574.492981,277.482880 574.066589,281.438690 
	C573.538940,286.334076 570.519775,289.221405 565.570862,289.406494 
	C531.444641,290.682983 497.304840,289.702087 463.172089,289.946472 
	C460.233215,289.967499 457.004639,289.951691 454.779114,287.508667 
	C452.299286,284.786560 450.961151,281.610809 452.506653,277.888214 
	C454.005768,274.277283 456.628235,272.618286 460.679871,272.642029 
	C478.666077,272.747528 496.653290,272.677063 514.640137,272.673615 
	C531.794373,272.670349 548.948608,272.671234 566.553833,272.686249 
z"/>
<path fill="#000000" opacity="1.000000" stroke="none" 
	d="
M717.111816,680.710693 
	C713.164795,663.492065 713.785278,646.999451 720.728210,631.028687 
	C722.045776,627.997925 723.759094,625.120605 725.484741,622.291321 
	C727.018372,619.776794 728.998962,619.116211 730.802795,622.043701 
	C741.871582,640.007751 745.938904,668.326477 728.502014,688.107727 
	C726.328796,690.573059 723.628418,692.546997 720.207397,694.119507 
	C717.988770,689.897156 718.533630,685.273865 717.111816,680.710693 
z"/>
<path fill="#000000" opacity="1.000000" stroke="none" 
	d="
M286.774536,639.143921 
	C288.508606,633.325745 290.197113,627.928101 293.290131,623.111206 
	C295.947754,618.972473 297.328064,618.971680 299.883545,623.285828 
	C310.314178,640.894836 312.676392,659.690735 308.072327,679.502380 
	C307.027191,683.999634 306.071594,688.517700 304.891479,693.855286 
	C296.941833,689.445984 291.642609,683.673218 288.707916,675.855713 
	C284.255798,663.996094 283.935425,651.846313 286.774536,639.143921 
z"/>
<path fill="#000000" opacity="1.000000" stroke="none" 
	d="
M680.689331,711.062134 
	C680.902893,695.132874 685.162842,681.128235 695.463623,669.301025 
	C696.747742,667.826660 697.967224,665.764404 700.185425,666.076904 
	C702.638916,666.422424 702.601868,668.998535 703.142761,670.802063 
	C706.457031,681.854553 708.768433,693.041321 706.282349,704.617432 
	C703.256653,718.705811 695.167786,729.047974 682.071838,736.750793 
	C681.586731,727.895142 681.138916,719.720520 680.689331,711.062134 
z"/>
<path fill="#000000" opacity="1.000000" stroke="none" 
	d="
M344.023254,706.351440 
	C343.610199,716.409302 343.153503,726.007385 342.650208,736.585144 
	C335.282532,732.276062 329.495209,727.598694 325.408508,721.081360 
	C314.731354,704.053955 316.487366,686.225525 322.380157,668.242432 
	C323.833038,663.808655 326.271606,665.664124 328.164612,667.934326 
	C336.303741,677.694885 342.281342,688.465881 343.356781,701.449341 
	C343.480011,702.937073 343.768005,704.411194 344.023254,706.351440 
z"/>
<path fill="#000000" opacity="1.000000" stroke="none" 
	d="
M644.813660,727.984558 
	C649.553650,718.333130 656.081787,710.683044 664.567017,704.706726 
	C666.797668,703.135620 668.934753,702.186890 669.437195,706.144226 
	C671.383667,721.473450 671.324036,736.519470 661.757263,749.771912 
	C655.600159,758.301025 646.673584,763.471985 637.024231,769.784546 
	C638.640686,754.940369 638.698792,741.131653 644.813660,727.984558 
z"/>
<path fill="#000000" opacity="1.000000" stroke="none" 
	d="
M372.234741,715.823242 
	C385.362640,731.348083 385.806335,750.130432 387.705231,768.694763 
	C370.693451,763.725830 355.605194,744.256592 354.783173,726.454102 
	C354.483521,719.964844 354.811157,713.498901 355.646698,707.042664 
	C356.171661,702.985718 357.934601,702.567810 360.893921,704.827148 
	C365.008392,707.968384 368.669708,711.594727 372.234741,715.823242 
z"/>
<path fill="#000000" opacity="1.000000" stroke="none" 
	d="
M457.900269,514.487183 
	C452.175171,505.180786 443.744812,499.222382 434.638733,493.946991 
	C436.605377,491.194794 438.267334,491.700775 439.659515,491.691986 
	C450.808289,491.621368 461.957733,491.649689 473.106415,491.572357 
	C475.242554,491.557556 476.956879,491.898254 478.174072,493.929260 
	C484.028900,503.698547 486.297760,514.422607 487.355377,525.518494 
	C484.825470,526.397888 483.643585,524.864502 482.651276,523.774231 
	C477.544403,518.162964 471.023560,516.387634 463.769501,516.352356 
	C461.764435,516.342590 459.744110,516.326538 457.900269,514.487183 
z"/>
<path fill="#000000" opacity="1.000000" stroke="none" 
	d="
M541.973145,507.193970 
	C542.371948,505.676025 542.609314,504.531860 542.972046,503.428925 
	C546.493408,492.721100 547.887878,491.746277 559.149841,491.617249 
	C567.293640,491.523956 575.435913,491.297333 583.579651,491.186859 
	C585.709595,491.157959 587.925415,490.977692 589.733093,492.527344 
	C590.251648,495.174866 588.295837,496.045715 586.561707,496.986847 
	C579.297791,500.928650 572.822754,505.712891 568.654419,513.107422 
	C567.641052,514.905029 566.133240,516.307739 563.890991,516.257019 
	C554.624573,516.047729 546.498108,518.543396 540.320557,525.889526 
	C540.064453,526.194092 539.437195,526.186462 538.335266,526.520691 
	C538.598389,519.799805 540.366028,513.713989 541.973145,507.193970 
z"/>
<path fill="#000000" opacity="1.000000" stroke="none" 
	d="
M521.490234,484.472717 
	C517.660889,491.049591 516.409546,498.337891 512.592041,504.908966 
	C508.379761,493.550201 504.237030,482.391357 496.928040,472.568542 
	C507.650818,473.111847 517.796143,473.005951 528.919067,472.157410 
	C526.196106,476.655853 523.929504,480.400421 521.490234,484.472717 
z"/>
</svg>